<svg xmlns="http://www.w3.org/2000/svg" width="512" height="512" viewBox="0 0 512 512" version="1.1">
	<path d="M 425.500 1.356 C 421.796 3.071, 418.475 6.599, 417.067 10.315 C 416.480 11.863, 416 17.982, 416 23.912 C 416 34.122, 415.881 34.748, 413.755 35.696 C 411.988 36.484, 410.911 36.254, 408.694 34.616 C 406.591 33.061, 404.387 32.533, 399.990 32.533 C 393.630 32.533, 390.476 34.143, 386.562 39.385 C 383.652 43.282, 383.673 52.713, 386.599 56.671 C 388.219 58.863, 388.477 60.004, 387.731 61.676 C 386.828 63.699, 385.955 63.864, 374.452 64.171 C 361.110 64.528, 359.151 65.238, 354.562 71.385 C 351.671 75.257, 351.671 84.743, 354.562 88.615 C 359.151 94.762, 361.110 95.472, 374.452 95.829 C 385.955 96.136, 386.828 96.301, 387.731 98.324 C 388.477 99.996, 388.219 101.137, 386.599 103.329 C 385.030 105.450, 384.500 107.644, 384.500 112.010 C 384.500 118.323, 386.140 121.522, 391.385 125.438 C 395.282 128.348, 404.713 128.327, 408.671 125.401 C 410.863 123.781, 412.004 123.523, 413.676 124.269 C 415.699 125.172, 415.864 126.045, 416.171 137.548 C 416.528 150.890, 417.238 152.849, 423.385 157.438 C 427.257 160.329, 436.743 160.329, 440.615 157.438 C 446.762 152.849, 447.472 150.890, 447.829 137.548 C 448.136 126.045, 448.301 125.172, 450.324 124.269 C 451.996 123.523, 453.137 123.781, 455.329 125.401 C 459.287 128.327, 468.718 128.348, 472.615 125.438 C 477.860 121.522, 479.500 118.323, 479.500 112.010 C 479.500 107.644, 478.970 105.450, 477.401 103.329 C 475.781 101.137, 475.523 99.996, 476.269 98.324 C 477.172 96.301, 478.045 96.136, 489.548 95.829 C 502.890 95.472, 504.849 94.762, 509.438 88.615 C 512.329 84.743, 512.329 75.257, 509.438 71.385 C 504.849 65.238, 502.890 64.528, 489.548 64.171 C 478.045 63.864, 477.172 63.699, 476.269 61.676 C 475.523 60.004, 475.781 58.863, 477.401 56.671 C 480.327 52.713, 480.348 43.282, 477.438 39.385 C 473.524 34.143, 470.370 32.533, 464.010 32.533 C 459.613 32.533, 457.409 33.061, 455.306 34.616 C 453.134 36.221, 451.994 36.477, 450.324 35.731 C 448.301 34.828, 448.136 33.955, 447.829 22.452 C 447.474 9.172, 446.749 7.141, 440.763 2.672 C 437.449 0.198, 429.485 -0.489, 425.500 1.356 M 232.500 17.107 C 210.956 19.111, 182.808 26.422, 161.351 35.587 C 105.645 59.380, 59.390 105.621, 35.614 161.288 C 16.391 206.292, 11.394 253.329, 20.635 302.277 C 24.114 320.703, 27.708 325.851, 37.676 326.681 C 44.455 327.247, 49.696 324.121, 52.938 317.581 L 55.375 312.662 53.177 301.581 C 49.784 284.483, 49.009 278.543, 48.336 264.495 C 46.047 216.692, 61.559 168.220, 91.857 128.500 C 98.295 120.060, 116.100 101.915, 125 94.723 C 164.478 62.824, 215.152 45.974, 264.495 48.336 C 278.543 49.009, 284.483 49.784, 301.581 53.177 L 312.662 55.375 317.581 52.938 C 329.293 47.134, 330.126 32.818, 319.185 25.368 C 315.588 22.918, 294.462 18.620, 278.144 17.017 C 266.246 15.849, 245.595 15.889, 232.500 17.107 M 240 96.622 C 167.772 105.596, 112.908 155.970, 98.799 226.268 C 95.567 242.373, 95.567 269.627, 98.799 285.732 C 111.908 351.045, 160.955 400.092, 226.268 413.201 C 242.373 416.433, 269.627 416.433, 285.732 413.201 C 351.045 400.092, 400.092 351.045, 413.201 285.732 C 416.433 269.627, 416.433 242.373, 413.201 226.268 C 400.138 161.184, 350.846 111.740, 286.273 98.947 C 275.814 96.875, 248.864 95.521, 240 96.622 M 243 128.682 C 234.280 129.582, 218.628 133.509, 209.334 137.128 C 198.317 141.417, 185.367 149.070, 175.291 157.245 L 168.924 162.411 195.415 188.955 C 209.985 203.555, 222.377 216.767, 222.953 218.315 C 223.615 220.095, 224 235.176, 224 259.334 L 224 297.538 233.998 307.498 L 243.995 317.458 260.748 311.938 L 277.500 306.418 287.258 291.982 C 292.624 284.042, 296.873 277.118, 296.699 276.596 C 296.524 276.073, 288.333 270.213, 278.495 263.573 C 268.658 256.933, 259.684 250.231, 258.554 248.680 C 256.840 246.328, 256.443 244.031, 256.159 234.824 C 255.661 218.737, 255.951 217.849, 264.583 208.978 L 272 201.356 272 187.243 C 272 172.531, 272.675 169.073, 276.317 165.144 C 277.517 163.849, 286.957 158.550, 297.293 153.368 C 307.629 148.187, 315.843 143.555, 315.546 143.075 C 314.572 141.499, 297.680 134.915, 288.500 132.535 C 273.741 128.707, 256.715 127.265, 243 128.682 M 465.500 187.208 C 462.750 188.784, 460.738 191.037, 459.062 194.419 L 456.625 199.338 458.830 210.419 C 460.043 216.514, 461.580 224.875, 462.244 229 C 463.863 239.053, 463.782 272.169, 462.110 284 C 457.042 319.848, 442.629 354.022, 420.143 383.500 C 413.705 391.940, 395.900 410.085, 387 417.277 C 362.894 436.755, 334.934 450.624, 305 457.952 C 287.612 462.208, 276.412 463.453, 255.500 463.452 C 236.372 463.452, 230.731 462.873, 210.419 458.830 L 199.338 456.625 194.419 459.062 C 182.707 464.866, 181.874 479.182, 192.815 486.632 C 198.995 490.840, 233.476 496.003, 255.356 495.997 C 388.209 495.956, 495.956 388.209, 495.997 255.356 C 496.003 233.476, 490.840 198.995, 486.632 192.815 C 481.521 185.309, 472.836 183.005, 465.500 187.208 M 73.500 353.356 C 69.796 355.071, 66.475 358.599, 65.067 362.315 C 64.480 363.863, 64 369.982, 64 375.912 C 64 386.122, 63.881 386.748, 61.755 387.696 C 59.988 388.484, 58.911 388.254, 56.694 386.616 C 54.591 385.061, 52.387 384.533, 47.990 384.533 C 41.630 384.533, 38.476 386.143, 34.562 391.385 C 31.652 395.282, 31.673 404.713, 34.599 408.671 C 36.219 410.863, 36.477 412.004, 35.731 413.676 C 34.828 415.699, 33.955 415.864, 22.452 416.171 C 9.110 416.528, 7.151 417.238, 2.562 423.385 C -0.329 427.257, -0.329 436.743, 2.562 440.615 C 7.151 446.762, 9.110 447.472, 22.452 447.829 C 33.955 448.136, 34.828 448.301, 35.731 450.324 C 36.477 451.996, 36.219 453.137, 34.599 455.329 C 33.030 457.450, 32.500 459.644, 32.500 464.010 C 32.500 470.323, 34.140 473.522, 39.385 477.438 C 43.282 480.348, 52.713 480.327, 56.671 477.401 C 58.863 475.781, 60.004 475.523, 61.676 476.269 C 63.699 477.172, 63.864 478.045, 64.171 489.548 C 64.528 502.890, 65.238 504.849, 71.385 509.438 C 75.257 512.329, 84.743 512.329, 88.615 509.438 C 94.762 504.849, 95.472 502.890, 95.829 489.548 C 96.136 478.045, 96.301 477.172, 98.324 476.269 C 99.996 475.523, 101.137 475.781, 103.329 477.401 C 107.287 480.327, 116.718 480.348, 120.615 477.438 C 125.860 473.522, 127.500 470.323, 127.500 464.010 C 127.500 459.644, 126.970 457.450, 125.401 455.329 C 123.781 453.137, 123.523 451.996, 124.269 450.324 C 125.172 448.301, 126.045 448.136, 137.548 447.829 C 150.890 447.472, 152.849 446.762, 157.438 440.615 C 160.329 436.743, 160.329 427.257, 157.438 423.385 C 152.849 417.238, 150.890 416.528, 137.548 416.171 C 126.045 415.864, 125.172 415.699, 124.269 413.676 C 123.523 412.004, 123.781 410.863, 125.401 408.671 C 128.327 404.713, 128.348 395.282, 125.438 391.385 C 121.524 386.143, 118.370 384.533, 112.010 384.533 C 107.613 384.533, 105.409 385.061, 103.306 386.616 C 101.134 388.221, 99.994 388.477, 98.324 387.731 C 96.301 386.828, 96.136 385.955, 95.829 374.452 C 95.474 361.172, 94.749 359.141, 88.763 354.672 C 85.449 352.198, 77.485 351.511, 73.500 353.356" stroke="none" fill="black" fill-rule="evenodd"/>
</svg>